<svg xmlns="http://www.w3.org/2000/svg" width="16" height="16" viewBox="0 0 16 16">
    <g fill="none" fill-rule="evenodd">
        <path d="M0 0H24V24H0z" transform="translate(-4 -4)"/>
        <path fill="#736E7D" d="M12 4c4.418 0 8 3.582 8 8s-3.582 8-8 8-8-3.582-8-8 3.582-8 8-8zm0 .8c-3.976 0-7.2 3.224-7.2 7.2s3.224 7.2 7.2 7.2 7.2-3.224 7.2-7.2-3.224-7.2-7.2-7.2zm-.428 5.6c.495 0 .877.12 1.146.358.267.24.402.55.402.932 0 .08-.01.219-.028.418-.018.2-.053.382-.103.55l-.513 1.814c-.042.146-.079.313-.113.499-.033.186-.05.328-.05.424 0 .24.054.405.163.493.107.087.294.131.56.131.125 0 .265-.022.424-.066.157-.043.27-.082.342-.115l-.137.56c-.412.163-.74.286-.985.372-.246.085-.53.128-.855.128-.499 0-.887-.122-1.163-.366-.276-.243-.414-.55-.414-.925 0-.146.01-.295.03-.447.022-.151.055-.322.1-.514l.516-1.82c.045-.175.084-.34.116-.495.03-.156.046-.299.046-.429 0-.231-.049-.394-.144-.485-.097-.092-.279-.137-.55-.137-.133 0-.27.02-.41.061-.14.043-.26.082-.359.12l.137-.561c.337-.138.66-.256.968-.353.308-.099.6-.148.874-.148zm1.139-3.323c.336 0 .625.111.863.336.24.225.36.495.36.81 0 .317-.12.586-.36.808-.239.222-.527.333-.863.333-.336 0-.626-.11-.867-.333-.24-.222-.361-.492-.361-.808 0-.315.122-.585.36-.81.242-.225.532-.336.868-.336z" transform="translate(-4 -4)"/>
    </g>
</svg>
