<svg width="16" height="18" viewBox="0 0 16 18" fill="none" xmlns="http://www.w3.org/2000/svg">
  <path d="M7.91032 0C8.14946 0.0241673 10.8174 1.42933 15.9103 4.21202L16 4.36738V12.6361C15.1854 13.1988 12.5213 14.6523 8 17.0035C3.11256 14.4452 0.444652 13.0158 0 12.7051V4.29488L7.91032 0ZM0.859411 5.24431V11.7591C1.04624 11.7591 3.08267 10.6992 6.9575 8.57941V8.34119C3.04904 6.2766 1.01261 5.24431 0.859411 5.24431ZM1.37132 4.45024C1.46474 4.56072 3.44138 5.64825 7.305 7.71284H7.56282V1.11515H7.48435C3.57216 3.17283 1.53573 4.28452 1.37506 4.45024H1.37132ZM1.37132 12.5532V12.6361C5.3433 14.7559 7.40588 15.8158 7.55908 15.8158V9.21812H7.48062C3.50864 11.2896 1.47221 12.4013 1.36759 12.5532H1.37132ZM8.42223 1.18765V7.71284C8.56049 7.71284 10.5969 6.67709 14.5353 4.60561V4.29833C13.4741 3.80118 11.5236 2.76543 8.68006 1.1911H8.42223V1.18765ZM8.42223 9.29062V15.6501C8.44092 15.7606 8.5007 15.8158 8.60159 15.8158C11.9159 14.0688 13.9187 12.9813 14.61 12.5532V12.4703L8.67632 9.29062H8.4185H8.42223ZM8.93414 8.49655C9.16581 8.7106 11.2583 9.74634 15.2116 11.6038V5.32717C15.2116 5.21669 15.1555 5.16145 15.0434 5.16145C11.1238 7.22604 9.08734 8.33773 8.93041 8.49655H8.93414Z" fill="#D9D9D9"/>
</svg>
