<svg xmlns="http://www.w3.org/2000/svg" width="16" height="12" viewBox="0 0 16 12">
    <g fill="none" fill-rule="evenodd" opacity=".64">
        <path d="M0 0H24V24H0z" transform="translate(-4 -6)"/>
        <path fill="#736E7D" fill-rule="nonzero" d="M9 12.915c1.053 0 2.026.334 2.81.898 1.078.775 1.8 1.985 1.888 3.36.007.096.01.191.01.288V18H4v-.54c0-2.51 2.108-4.545 4.708-4.545zm6.617-.874c2.417 0 4.383 1.898 4.383 4.232v.9h-5.362c-.034-.634-.18-1.25-.437-1.834-.284-.65-.691-1.233-1.21-1.733-.175-.17-.36-.327-.555-.471.778-.68 1.809-1.094 2.938-1.094zM8.854 6c1.61 0 2.92 1.341 2.92 2.99 0 1.648-1.31 2.99-2.92 2.99-1.61 0-2.92-1.342-2.92-2.99C5.934 7.34 7.244 6 8.854 6zm6.64.428c1.373 0 2.497 1.136 2.509 2.542.006.678-.246 1.32-.708 1.806-.47.495-1.102.77-1.777.775h-.02c-.669 0-1.297-.264-1.77-.747-.471-.479-.733-1.116-.74-1.794-.005-.679.246-1.32.708-1.806.47-.495 1.102-.77 1.778-.776z" transform="translate(-4 -6)"/>
    </g>
</svg>
