<svg xmlns="http://www.w3.org/2000/svg" width="16" height="16" viewBox="0 0 16 16">
    <g fill="none" fill-rule="evenodd" opacity=".64">
        <path d="M0 0H24V24H0z" transform="translate(-4 -4)"/>
        <path fill="#736E7D" d="M12 4c4.418 0 8 3.582 8 8s-3.582 8-8 8-8-3.582-8-8 3.582-8 8-8zm-.428 6.4c-.275 0-.566.048-.874.147-.308.097-.631.215-.968.353l-.137.56c.1-.037.22-.076.359-.119.14-.04.277-.06.41-.06.271 0 .453.044.55.136.095.091.144.254.144.485 0 .13-.015.273-.046.429-.032.154-.07.32-.116.495l-.516 1.82c-.045.192-.078.363-.1.514-.02.152-.03.301-.03.447 0 .374.138.682.414.925.276.244.664.366 1.163.366.324 0 .61-.043.855-.128.245-.086.573-.21.985-.372l.137-.56c-.071.033-.185.072-.342.115-.159.044-.299.066-.424.066-.266 0-.453-.044-.56-.131-.109-.088-.162-.252-.162-.493 0-.096.016-.238.05-.424.033-.186.07-.353.112-.499l.513-1.815c.05-.167.085-.35.103-.549.018-.2.028-.339.028-.418 0-.382-.135-.693-.402-.932-.27-.238-.651-.359-1.146-.359zm1.139-3.323c-.336 0-.626.111-.867.336-.24.225-.361.495-.361.81 0 .316.121.586.36.808.242.222.532.333.868.333.336 0 .624-.11.863-.333.24-.222.36-.491.36-.808 0-.315-.12-.585-.36-.81-.238-.225-.527-.336-.863-.336z" transform="translate(-4 -4)"/>
    </g>
</svg>
