<svg xmlns="http://www.w3.org/2000/svg" width="24" height="24" viewBox="0 0 24 24">
    <g fill="none" fill-rule="evenodd">
        <path d="M0 0H24V24H0z"/>
        <path fill="#FF2D55" fill-rule="nonzero" d="M4.227 12.716c-.151-.143-.227-.358-.227-.501 0-.143.076-.358.227-.502l1.06-1.003c.304-.286.758-.286 1.06 0l3.012 3.135c.151.143.378.143.53 0l7.763-7.63c.303-.287.757-.287 1.06 0l1.06 1.003c.304.286.304.716 0 1.003l-9.656 9.564c-.152.143-.303.215-.53.215-.227 0-.379-.072-.53-.215l-4.829-5.069z"/>
    </g>
</svg>
