<svg width="342" height="89" viewBox="0 0 342 89" fill="none" xmlns="http://www.w3.org/2000/svg">
<path d="M9.07321 78.6114L7.26752 85.3182L6.95526 87.0696L6.62942 85.3182L4.81015 78.6114H1.30737L1.30737 88.1693H3.31672L3.31672 81.2045L3.27599 79.4531L5.55686 88.1693H8.27219L10.5259 79.4395L10.4852 81.2045V88.1693H12.4945V78.6114H9.07321Z" fill="white"/>
<path d="M16.9593 84.1235H21.4532V82.5622H16.9593V80.2813H21.6976V78.6114H14.9636V88.1693H21.7655V86.4994H16.9593V84.1235Z" fill="white"/>
<path d="M22.748 78.6114V80.2813H26.0199V88.1693H28.0157V80.2813H31.2877V78.6114H22.748Z" fill="white"/>
<path d="M39.5479 88.1693L36.466 78.6114H32.9632L29.8813 88.1693H31.8771L32.6917 85.6305H36.6561L37.4707 88.1693H39.5479ZM34.0901 81.286L34.6875 79.2495L35.2713 81.286L36.1537 84.0556H33.194L34.0901 81.286Z" fill="white"/>
<path d="M44.2586 85.4947L43.7019 87.4362L43.1317 85.4947L40.973 78.6114H38.8958L41.9234 88.1693H45.399L48.4266 78.6114H46.4173L44.2586 85.4947Z" fill="white"/>
<path d="M51.6302 84.1235H56.124V82.5622H51.6302V80.2813H56.3684V78.6114H49.6344V88.1693H56.4363V86.4994H51.6302V84.1235Z" fill="white"/>
<path d="M66.9632 88.1693L65.076 85.2232L64.3022 84.1778C65.4833 83.7569 66.1757 82.7658 66.1757 81.476C66.1757 80.6207 65.8906 79.9283 65.334 79.3988C64.7773 78.8693 64.0306 78.6114 63.1074 78.6114H58.4778V88.1693H60.4735V84.395H62.3743L64.7366 88.1693H66.9632ZM62.6458 80.1998C63.6776 80.1998 64.1257 80.6071 64.1257 81.5439C64.1257 82.5079 63.6776 82.9287 62.6458 82.9287H60.4735V80.1998H62.6458Z" fill="white"/>
<path d="M71.8587 88.373C73.1214 88.373 74.126 88.1014 74.8999 87.572C75.6738 87.0425 76.0539 86.3365 76.0539 85.454C76.0539 84.653 75.7824 84.0284 75.2257 83.5804C74.6691 83.1188 73.7459 82.7658 72.4425 82.535C71.3971 82.3449 70.7047 82.1549 70.3653 81.9512C70.0259 81.7476 69.863 81.476 69.863 81.1366C69.863 80.4035 70.5011 80.0369 71.7908 80.0369C73.2435 80.0369 73.8681 80.5392 73.8681 81.7476H75.8638C75.8638 80.7429 75.4973 79.9419 74.7506 79.3309C74.0038 78.72 73.0263 78.4077 71.818 78.4077C70.6368 78.4077 69.6729 78.6792 68.9398 79.2359C68.2202 79.7925 67.8536 80.5121 67.8536 81.4082C67.8536 82.9695 68.9126 83.7705 71.465 84.2457C72.9449 84.5172 73.7187 84.8566 73.8952 85.1417C73.9903 85.2775 74.0446 85.454 74.0446 85.6712C74.0446 86.3908 73.325 86.7438 71.8723 86.7438C70.2838 86.7438 69.605 86.255 69.605 85.1146H67.6092C67.6092 86.0921 68.003 86.8795 68.7768 87.4769C69.5507 88.0743 70.5825 88.373 71.8587 88.373Z" fill="white"/>
<path d="M79.8044 84.1235H84.2982V82.5622H79.8044V80.2813H84.5426V78.6114H77.8086V88.1693H84.6105V86.4994H79.8044V84.1235Z" fill="white"/>
<path d="M95.9682 78.6114H89.3699V88.1693H91.3657V84.1914H95.751V82.6301H91.3657V80.2813H95.9682V78.6114Z" fill="white"/>
<path d="M105.535 88.1693L102.453 78.6114H98.9505L95.8686 88.1693H97.8644L98.679 85.6305H102.643L103.458 88.1693H105.535ZM100.077 81.286L100.675 79.2495L101.259 81.286L102.141 84.0556H99.1813L100.077 81.286Z" fill="white"/>
<path d="M110.494 88.373C111.756 88.373 112.761 88.1014 113.535 87.572C114.309 87.0425 114.689 86.3365 114.689 85.454C114.689 84.653 114.417 84.0284 113.861 83.5804C113.304 83.1188 112.381 82.7658 111.078 82.535C110.032 82.3449 109.34 82.1549 109 81.9512C108.661 81.7476 108.498 81.476 108.498 81.1366C108.498 80.4035 109.136 80.0369 110.426 80.0369C111.879 80.0369 112.503 80.5392 112.503 81.7476H114.499C114.499 80.7429 114.132 79.9419 113.386 79.3309C112.639 78.72 111.661 78.4077 110.453 78.4077C109.272 78.4077 108.308 78.6792 107.575 79.2359C106.855 79.7925 106.489 80.5121 106.489 81.4082C106.489 82.9695 107.548 83.7705 110.1 84.2457C111.58 84.5172 112.354 84.8566 112.53 85.1417C112.625 85.2775 112.68 85.454 112.68 85.6712C112.68 86.3908 111.96 86.7438 110.507 86.7438C108.919 86.7438 108.24 86.255 108.24 85.1146H106.244C106.244 86.0921 106.638 86.8795 107.412 87.4769C108.186 88.0743 109.218 88.373 110.494 88.373Z" fill="white"/>
<path d="M122.988 82.4943H118.439V78.6114H116.444V88.1693H118.439V84.1642H122.988V88.1693H124.983V78.6114H122.988V82.4943Z" fill="white"/>
<path d="M127.448 88.1693H129.444V78.6114H127.448V88.1693Z" fill="white"/>
<path d="M139.696 87.0017C140.578 86.0921 141.026 84.8838 141.026 83.3903C141.026 81.8969 140.578 80.6886 139.696 79.779C138.813 78.8693 137.632 78.4077 136.179 78.4077C134.727 78.4077 133.546 78.8693 132.663 79.779C131.781 80.6886 131.332 81.8969 131.332 83.3903C131.332 84.8838 131.781 86.0921 132.663 87.0017C133.546 87.9114 134.727 88.373 136.179 88.373C137.632 88.373 138.813 87.9114 139.696 87.0017ZM134.048 85.8749C133.6 85.359 133.383 84.5308 133.383 83.3903C133.383 82.2499 133.6 81.4217 134.048 80.9194C134.496 80.4035 135.202 80.1455 136.179 80.1455C137.157 80.1455 137.863 80.4035 138.311 80.9194C138.759 81.4217 138.976 82.2499 138.976 83.3903C138.976 84.5308 138.759 85.359 138.311 85.8749C137.863 86.3908 137.157 86.6487 136.179 86.6487C135.202 86.6487 134.496 86.3908 134.048 85.8749Z" fill="white"/>
<path d="M149.696 84.2864L149.777 87.219L146.383 78.6114H142.908V88.1693H144.89V82.2635L144.808 79.4667L148.243 88.1693H151.678V78.6114H149.696V84.2864Z" fill="white"/>
<path d="M167.214 85.4947L166.848 87.3411L166.522 85.4947L165.069 78.6114H161.919L160.453 85.4947L160.141 87.3411L159.761 85.4947L158.131 78.6114H155.932L158.335 88.1693H161.688L163.1 81.734L163.494 79.521L163.888 81.7204L165.3 88.1693H168.612L171.016 78.6114H168.857L167.214 85.4947Z" fill="white"/>
<path d="M174.39 84.1235H178.884V82.5622H174.39V80.2813H179.128V78.6114H172.394V88.1693H179.196V86.4994H174.39V84.1235Z" fill="white"/>
<path d="M183.233 84.1235H187.727V82.5622H183.233V80.2813H187.972V78.6114H181.238V88.1693H188.04V86.4994H183.233V84.1235Z" fill="white"/>
<path d="M198.729 78.6114H196.258L193.122 81.9241L192.09 83.1324V78.6114H190.081V88.1693H192.09V83.6076L193.136 84.8023L196.367 88.1693H199.042L194.303 83.3089L198.729 78.6114Z" fill="white"/>
<path d="M208.832 82.983C209.973 82.7115 210.665 81.9376 210.665 80.9058C210.665 80.2134 210.394 79.6703 209.837 79.2495C209.28 78.8286 208.561 78.6114 207.665 78.6114H203.008V88.1693H208.004C208.914 88.1693 209.633 87.9249 210.177 87.4362C210.733 86.9474 211.005 86.2957 211.005 85.4947C211.005 84.2593 210.244 83.3496 208.832 82.983ZM207.135 80.1998C208.167 80.1998 208.615 80.58 208.615 81.4489C208.615 82.3178 208.167 82.6979 207.135 82.6979H205.004V80.1998H207.135ZM205.004 86.5809V84.0556H207.42C208.466 84.0556 208.9 84.4357 208.9 85.3182C208.9 86.2007 208.466 86.5809 207.42 86.5809H205.004Z" fill="white"/>
<path d="M218.685 78.6114L216.947 81.9648L216.214 83.6347L215.494 81.9648L213.743 78.6114H211.584L215.155 85.3454V88.1693H217.151V85.3454L220.721 78.6114H218.685Z" fill="white"/>
<path d="M224.672 78.6114V88.1693H228.664C230.089 88.1693 231.23 87.7349 232.099 86.8524C232.968 85.9699 233.402 84.8159 233.402 83.3903C233.402 81.9648 232.968 80.8108 232.099 79.9283C231.23 79.0458 230.089 78.6114 228.664 78.6114H224.672ZM226.668 86.5265V80.2813H228.569C230.429 80.2813 231.352 81.3131 231.352 83.3903C231.352 85.4811 230.429 86.5265 228.569 86.5265H226.668Z" fill="white"/>
<path d="M237.288 84.1235H241.782V82.5622H237.288V80.2813H242.026V78.6114H235.292V88.1693H242.094V86.4994H237.288V84.1235Z" fill="white"/>
<path d="M248.145 78.4077C246.719 78.4077 245.579 78.8693 244.696 79.779C243.827 80.6886 243.393 81.8969 243.393 83.3903C243.393 84.8838 243.827 86.0921 244.696 87.0017C245.579 87.9114 246.719 88.373 248.145 88.373C249.394 88.373 250.426 88.0607 251.24 87.4226C252.055 86.7845 252.462 85.9292 252.462 84.8295H250.466C250.466 86.0921 249.76 86.6487 248.145 86.6487C246.258 86.6487 245.443 85.6712 245.443 83.3903C245.443 81.1095 246.258 80.1455 248.145 80.1455C249.76 80.1455 250.453 80.7293 250.453 82.1277H252.448C252.448 80.9873 252.041 80.0776 251.227 79.4124C250.412 78.7471 249.38 78.4077 248.145 78.4077Z" fill="white"/>
<path d="M256.248 84.1235H260.742V82.5622H256.248V80.2813H260.986V78.6114L254.252 78.6114V88.1693H261.054V86.4994H256.248V84.1235Z" fill="white"/>
<path d="M269.884 84.2864L269.965 87.219L266.571 78.6114H263.095V88.1693H265.077V82.2635L264.996 79.4667L268.431 88.1693H271.866V78.6114H269.884V84.2864Z" fill="white"/>
<path d="M273.28 78.6114V80.2813H276.551V88.1693H278.547V80.2813H281.819V78.6114H273.28Z" fill="white"/>
<path d="M291.72 88.1693L289.833 85.2232L289.059 84.1778C290.24 83.7569 290.933 82.7658 290.933 81.476C290.933 80.6207 290.648 79.9283 290.091 79.3988C289.534 78.8693 288.788 78.6114 287.865 78.6114H283.235V88.1693H285.231V84.395H287.131L289.494 88.1693H291.72ZM287.403 80.1998C288.435 80.1998 288.883 80.6071 288.883 81.5439C288.883 82.5079 288.435 82.9287 287.403 82.9287H285.231V80.1998H287.403Z" fill="white"/>
<path d="M301.707 88.1693L298.625 78.6114H295.122L292.04 88.1693H294.036L294.851 85.6305H298.815L299.63 88.1693H301.707ZM296.249 81.286L296.847 79.2495L297.43 81.286L298.313 84.0556H295.353L296.249 81.286Z" fill="white"/>
<path d="M305.132 78.6114H303.136V88.1693H309.625V86.4994H305.132V78.6114Z" fill="white"/>
<path d="M319.871 88.1693L316.789 78.6114H313.286L310.205 88.1693H312.2L313.015 85.6305H316.979L317.794 88.1693H319.871ZM314.413 81.286L315.011 79.2495L315.595 81.286L316.477 84.0556H313.517L314.413 81.286Z" fill="white"/>
<path d="M328.088 84.2864L328.17 87.219L324.776 78.6114H321.3V88.1693H323.282V82.2635L323.201 79.4667L326.636 88.1693H330.07V78.6114H328.088V84.2864Z" fill="white"/>
<path d="M332.543 78.6114V88.1693H336.535C337.96 88.1693 339.101 87.7349 339.969 86.8524C340.838 85.9699 341.273 84.8159 341.273 83.3903C341.273 81.9648 340.838 80.8108 339.969 79.9283C339.101 79.0458 337.96 78.6114 336.535 78.6114H332.543ZM334.539 86.5265V80.2813H336.44C338.3 80.2813 339.223 81.3131 339.223 83.3903C339.223 85.4811 338.3 86.5265 336.44 86.5265H334.539Z" fill="white"/>
<g clip-path="url(#clip0_2030_39542)">
<path d="M315.454 0L301.658 47.0015L287.196 0H257.701L243.239 47.0015L229.443 0H229.045H140.139L121.395 49.4754L102.652 0H101.996H71.5497L50.9986 38.0578L30.4465 0H0V66.6015H24.7379V34.9181L42.9108 66.6015H59.0854L77.2583 34.9181V66.6015H139.758L158.678 20.9321H204.307V28.0678H164.346V48.9993H204.307V66.6015H261.507L272.449 28.258L283.39 66.6015H341.983L342 0H315.454Z" fill="white"/>
</g>
<defs>
<clipPath id="clip0_2030_39542">
<rect width="342" height="66.6015" fill="white"/>
</clipPath>
</defs>
</svg>
