<svg xmlns="http://www.w3.org/2000/svg" width="16" height="16" viewBox="0 0 16 16">
    <g fill="none" fill-rule="evenodd" opacity=".64">
        <path d="M0 0H24V24H0z" transform="translate(-4 -4)"/>
        <path fill="#736E7D" fill-rule="nonzero" d="M12 4c-4.411 0-8 3.589-8 8s3.589 8 8 8 8-3.589 8-8-3.589-8-8-8zm3.805 12.138c-.13.13-.301.195-.472.195-.17 0-.341-.065-.47-.195l-3.334-3.333c-.126-.125-.196-.294-.196-.472V8c0-.369.299-.667.667-.667.368 0 .667.298.667.667v4.057l3.138 3.138c.26.261.26.682 0 .943z" transform="translate(-4 -4)"/>
    </g>
</svg>
