<svg width="24" height="24" viewBox="0 0 24 24" fill="none" xmlns="http://www.w3.org/2000/svg">
<g clip-path="url(#clip0_41_6018)">
<rect x="-0.0996094" width="24" height="24" fill="url(#paint0_linear_41_6018)"/>
<rect x="-0.32373" y="21.5508" width="24" height="2.44898" fill="#A917CD"/>
<rect x="-0.103516" y="19.1016" width="24" height="2.44898" fill="#E549F5"/>
<path d="M-0.103516 16.6531H16.8965V19.1021H-0.103516V16.6531Z" fill="#FD8DFF"/>
<path fill-rule="evenodd" clip-rule="evenodd" d="M8.71191 8.19727V16.6583H15.7627L8.71191 8.19727Z" fill="url(#paint1_linear_41_6018)"/>
<path fill-rule="evenodd" clip-rule="evenodd" d="M1.66113 16.6583H8.71196V8.19727L1.66113 16.6583Z" fill="#FEEDFD"/>
<path fill-rule="evenodd" clip-rule="evenodd" d="M16.8789 12.9917V19.1025H22.0525L16.8789 12.9917Z" fill="url(#paint2_linear_41_6018)"/>
<path fill-rule="evenodd" clip-rule="evenodd" d="M11.8965 19.1025H17.0644V12.9917L11.8965 19.1025Z" fill="#FEEDFD"/>
<path d="M16.8685 10.3403C17.299 10.3406 17.6733 9.69605 17.8723 8.74031C17.8992 8.60024 17.9676 8.47146 18.0687 8.37068C18.1698 8.2699 18.2988 8.20176 18.4391 8.17507C19.3852 7.98905 20.0425 7.60487 20.0429 7.17501C20.0432 6.74515 19.3978 6.37142 18.4407 6.17283C18.3004 6.14597 18.1715 6.07765 18.0706 5.97673C17.9696 5.87582 17.9014 5.74696 17.8747 5.60686C17.6885 4.66217 17.3039 4.00582 16.8734 4.00553C16.4429 4.00525 16.0686 4.64979 15.8696 5.60553C15.8427 5.7456 15.7743 5.87438 15.6732 5.97516C15.5721 6.07594 15.4431 6.14408 15.3028 6.17077C14.3567 6.35679 13.6994 6.74097 13.6991 7.17083C13.6987 7.60069 14.3442 7.97442 15.3012 8.17301C15.4415 8.19987 15.5704 8.26819 15.6714 8.3691C15.7723 8.47002 15.8405 8.59888 15.8672 8.73898C16.0647 9.69499 16.4324 10.3457 16.8685 10.3403Z" fill="#FD9CFF"/>
<path d="M16.8708 8.91904C17.108 8.91919 17.3144 8.56394 17.424 8.03717C17.4389 7.95997 17.4766 7.88899 17.5323 7.83345C17.588 7.7779 17.6591 7.74034 17.7364 7.72563C18.2579 7.6231 18.6202 7.41136 18.6204 7.17443C18.6205 6.93751 18.2648 6.73152 17.7373 6.62207C17.66 6.60726 17.5889 6.5696 17.5333 6.51398C17.4777 6.45836 17.4401 6.38734 17.4253 6.31012C17.3227 5.78944 17.1107 5.42768 16.8734 5.42752C16.6362 5.42737 16.4299 5.78262 16.3202 6.30939C16.3054 6.38659 16.2677 6.45757 16.2119 6.51312C16.1562 6.56866 16.0851 6.60622 16.0078 6.62093C15.4863 6.72346 15.1241 6.9352 15.1239 7.17213C15.1237 7.40905 15.4794 7.61504 16.0069 7.72449C16.0842 7.7393 16.1553 7.77696 16.2109 7.83258C16.2666 7.8882 16.3042 7.95922 16.3189 8.03644C16.4277 8.56336 16.6304 8.92199 16.8708 8.91904Z" fill="#FEEDFD"/>
<path d="M8.69504 6.18608C8.97064 6.18626 9.2103 5.7736 9.3377 5.16169C9.35493 5.07201 9.39874 4.98957 9.46345 4.92504C9.52816 4.86052 9.61078 4.81689 9.70061 4.79981C10.3063 4.6807 10.7272 4.43474 10.7274 4.15952C10.7276 3.88431 10.3144 3.64503 9.70159 3.51789C9.61179 3.50069 9.52923 3.45695 9.46462 3.39234C9.40001 3.32773 9.35633 3.24522 9.33923 3.15552C9.22002 2.5507 8.97375 2.13047 8.69814 2.13029C8.42254 2.13011 8.18288 2.54277 8.05548 3.15468C8.03825 3.24436 7.99444 3.3268 7.92973 3.39133C7.86502 3.45585 7.7824 3.49948 7.69257 3.51656C7.08687 3.63567 6.66602 3.88163 6.66581 4.15685C6.6656 4.43206 7.07882 4.67134 7.69159 4.79848C7.78139 4.81568 7.86395 4.85942 7.92856 4.92403C7.99317 4.98864 8.03685 5.07114 8.05395 5.16084C8.1804 5.77292 8.4158 6.18952 8.69504 6.18608Z" fill="#FD9CFF"/>
<path d="M8.69662 5.18449C8.83603 5.18459 8.95725 4.97586 9.02168 4.66635C9.0304 4.62099 9.05256 4.57929 9.08529 4.54665C9.11802 4.51401 9.15981 4.49195 9.20525 4.48331C9.51162 4.42306 9.72449 4.29865 9.72459 4.15944C9.7247 4.02024 9.51569 3.89921 9.20574 3.8349C9.16032 3.8262 9.11856 3.80408 9.08588 3.7714C9.0532 3.73872 9.03111 3.69699 9.02246 3.65162C8.96216 3.34569 8.8376 3.13313 8.69819 3.13304C8.55879 3.13295 8.43757 3.34168 8.37313 3.65119C8.36441 3.69655 8.34225 3.73825 8.30952 3.77089C8.27679 3.80352 8.235 3.82559 8.18956 3.83423C7.8832 3.89447 7.67033 4.01889 7.67022 4.15809C7.67011 4.2973 7.87913 4.41833 8.18907 4.48264C8.23449 4.49134 8.27625 4.51346 8.30893 4.54614C8.34161 4.57882 8.36371 4.62055 8.37235 4.66592C8.43632 4.97551 8.55538 5.18623 8.69662 5.18449Z" fill="#FEEDFD"/>
</g>
<defs>
<linearGradient id="paint0_linear_41_6018" x1="-4.09961" y1="22.5" x2="17.1098" y2="-5.6028" gradientUnits="userSpaceOnUse">
<stop stop-color="#EB74EF"/>
<stop offset="0.473958" stop-color="#C640CD"/>
<stop offset="1" stop-color="#6D40CD"/>
</linearGradient>
<linearGradient id="paint1_linear_41_6018" x1="8.70955" y1="8.19727" x2="8.70955" y2="16.6583" gradientUnits="userSpaceOnUse">
<stop stop-color="#6A54C0"/>
<stop offset="0.0001" stop-color="#3A38A8"/>
<stop offset="1" stop-color="#A612DA"/>
</linearGradient>
<linearGradient id="paint2_linear_41_6018" x1="16.8772" y1="12.9917" x2="16.8772" y2="19.1025" gradientUnits="userSpaceOnUse">
<stop stop-color="#6A54C0"/>
<stop offset="0.0001" stop-color="#3A38A8"/>
<stop offset="1" stop-color="#A612DA"/>
</linearGradient>
<clipPath id="clip0_41_6018">
<rect width="24" height="24" rx="5" fill="white"/>
</clipPath>
</defs>
</svg>
